<svg id="Layer_1" data-name="Layer 1" xmlns="http://www.w3.org/2000/svg" xmlns:xlink="http://www.w3.org/1999/xlink" viewBox="0 0 374.58 77.12"><defs><style>.cls-1{fill:#ee1c47;}.cls-2{fill:url(#linear-gradient);}.cls-3{fill:url(#linear-gradient-2);}</style><linearGradient id="linear-gradient" x1="-68.01" y1="111.11" x2="-67.51" y2="111.11" gradientUnits="userSpaceOnUse"><stop offset="0"/><stop offset="1"/></linearGradient><linearGradient id="linear-gradient-2" x1="-68.01" y1="111.13" x2="-67.51" y2="111.13" xlink:href="#linear-gradient"/></defs><title> logo</title><polyline points="30.49 0 30.49 4.1 17.5 4.1 17.5 34.57 12.99 34.57 12.99 4.1 0 4.1 0 0"/><polyline points="74.43 0 74.43 4.1 53.14 4.1 53.14 13.42 72.11 13.42 72.11 17.52 53.14 17.52 53.14 30.46 74.91 30.46 74.91 34.57 48.62 34.57 48.62 0"/><polyline points="115.87 0 115.87 4.1 94.58 4.1 94.58 13.42 113.55 13.42 113.55 17.52 94.58 17.52 94.58 30.46 116.36 30.46 116.36 34.57 90.07 34.57 90.07 0"/><path class="cls-1" d="M205.64,51.86h28q14.18,0,22.66,6.87,9.18,7.41,9.18,21.3,0,14.49-9.68,23.07-9.18,8.1-23.56,8.11H214.87v16.63h-9.23Zm27.85,50.32q10.19,0,16.07-5.47,6.13-5.7,6.14-16,0-9.91-6.89-15.13-6.19-4.66-16.62-4.66H214.87v41.3h18.62Z" transform="translate(-74.52 -51.77)"/><path class="cls-1" d="M288.24,51.86H269.93l18.31,76H269.93Z" transform="translate(-74.52 -51.77)"/><path class="cls-1" d="M306.61,51.86h29q16.22,0,26.1,9.76,10.23,10.09,10.23,27,0,17.87-10.48,28.6t-27.25,10.62h-27.6Zm28.85,66.94q12.42,0,19.61-8t7.09-21.52q0-13.08-7.84-20.81-7.63-7.56-20.16-7.56H315.84V118.8Z" transform="translate(-74.52 -51.77)"/><path class="cls-1" d="M384.92,51.86h9.23V91.18q0,20.71,12.83,26.77a24.45,24.45,0,0,0,10.38,2,25.09,25.09,0,0,0,10.21-1.88,17.83,17.83,0,0,0,7-5.42q5.34-6.81,5.34-19.9V51.86h9.23V91.18q0,27.3-18.32,35.14a35.82,35.82,0,0,1-14.07,2.57,35.46,35.46,0,0,1-13.9-2.5,25.94,25.94,0,0,1-9.86-7.16q-8-9.44-8-26.45V51.86Z" transform="translate(-74.52 -51.77)"/><path class="cls-2" d="M80.3,124a16.86,16.86,0,0,1-4-5.51,15.16,15.16,0,0,1-1.48-6.44,20.79,20.79,0,0,1,.67-5.63,17.26,17.26,0,0,1,4.89-8,18.49,18.49,0,0,1,3.86-2.74,20.46,20.46,0,0,1,9.69-2.34,20.1,20.1,0,0,1,9.38,2.25,17.48,17.48,0,0,1,6.74,6.1,16.67,16.67,0,0,1,2.56,9.06A17,17,0,0,1,107,123.81a18.79,18.79,0,0,1-8.42,4.47,24.26,24.26,0,0,1-5.71.61A19.55,19.55,0,0,1,80.3,124Zm3.35-22.82a13,13,0,0,0-4.07,9.6,13.52,13.52,0,0,0,1.13,5.49,14.22,14.22,0,0,0,13.2,8.55,13.77,13.77,0,0,0,9.82-3.81,12.62,12.62,0,0,0,4.08-9.55A14,14,0,0,0,100.7,99.3,13.15,13.15,0,0,0,94,97.39a15.78,15.78,0,0,0-5.94,1A13.9,13.9,0,0,0,83.65,101.2Z" transform="translate(-74.52 -51.77)"/><path class="cls-3" d="M122.94,93.85h1.35l15.25,16.73,15.24-16.73h1.44l2.93,34.55h-4.42l-2.22-26-12.92,14.31h-.49l-12.52-14.09-2,25.78h-4.37Z" transform="translate(-74.52 -51.77)"/><path class="cls-2" d="M180.24,93.83h2.57l15,34.57h-4.93l-3.27-7.57H172.26l-3.54,7.57h-4.64Zm7.57,22.9-3.12-7.25c-.39-.91-.78-1.86-1.15-2.83l-1-2.76a30.43,30.43,0,0,1-1.1-3.66h-.29a18.61,18.61,0,0,1-.88,2.78l-1.24,3.17c-.38.92-.79,1.84-1.22,2.79l-3.64,7.76Z" transform="translate(-74.52 -51.77)"/></svg>